<svg width="26" height="26" viewBox="0 0 26 26" fill="none" xmlns="http://www.w3.org/2000/svg">
  <circle cx="12.8657" cy="13.4911" r="12.5" fill="#24CCAE"/>
  <path d="M17.6119 11.8453L16.8894 11.0231C16.6899 10.7961 16.3445 10.7742 16.1165 10.9726L13.9621 12.8606V5.03805C13.9621 4.73545 13.7165 4.48987 13.4139 4.48987H12.3176C12.015 4.48987 11.7694 4.73545 11.7694 5.03805V12.8606L9.61506 10.9726C9.38811 10.7742 9.04276 10.7961 8.84213 11.0231L8.11963 11.8442C7.91899 12.0723 7.94202 12.4198 8.17006 12.6194L12.5051 16.4139C12.7123 16.5948 13.0203 16.5948 13.2276 16.4139L17.5615 12.6194C17.7895 12.4198 17.8125 12.0723 17.6119 11.8453Z" fill="#12283C"/>
  <path d="M18.8957 18.7425H6.83578C6.53318 18.7425 6.2876 18.9881 6.2876 19.2907V20.3871C6.2876 20.6897 6.53318 20.9353 6.83578 20.9353H18.8957C19.1983 20.9353 19.4439 20.6897 19.4439 20.3871V19.2907C19.4439 18.9881 19.1983 18.7425 18.8957 18.7425Z" fill="#12283C" />
</svg>
