<svg width="14" height="17" viewBox="0 0 14 17" fill="none" xmlns="http://www.w3.org/2000/svg">
  <path d="M11.5313 7.61004L10.8088 6.78778C10.6093 6.56083 10.2639 6.5389 10.0359 6.73734L7.88155 8.62527V0.802757C7.88155 0.500162 7.63597 0.254578 7.33337 0.254578H6.23702C5.93442 0.254578 5.68884 0.500162 5.68884 0.802757V8.62527L3.53449 6.73734C3.30755 6.5389 2.96219 6.56083 2.76156 6.78778L2.03906 7.60895C1.83843 7.83699 1.86145 8.18454 2.08949 8.38407L6.42449 12.1786C6.6317 12.3595 6.93978 12.3595 7.14699 12.1786L11.4809 8.38407C11.7089 8.18454 11.732 7.83699 11.5313 7.61004Z" fill="#24CCAE"/>
  <path d="M12.8152 14.5072H0.75521C0.452615 14.5072 0.207031 14.7528 0.207031 15.0554V16.1518C0.207031 16.4544 0.452615 16.7 0.75521 16.7H12.8152C13.1177 16.7 13.3633 16.4544 13.3633 16.1518V15.0554C13.3633 14.7528 13.1177 14.5072 12.8152 14.5072Z" fill="#24CCAE"/>
</svg>
