<svg width="512" height="512" viewBox="0 0 512 512" fill="none" xmlns="http://www.w3.org/2000/svg">
<path d="M143.411 462.454L277.188 384.924C304.744 368.954 318.522 360.969 323.171 350.592C327.227 341.538 327.227 331.22 323.171 322.166C318.522 311.79 304.744 303.804 277.188 287.834L261.705 278.861C259.439 280.164 256.923 281.579 254.139 283.145L198.11 314.661C184.108 322.538 177.107 326.476 171.372 325.827C166.369 325.262 161.837 322.611 158.891 318.528C155.515 313.848 155.515 305.815 155.515 289.75V226.716C155.515 223.228 155.515 220.118 155.549 217.339L143.411 210.304C115.175 193.94 101.058 185.758 89.4578 186.894C79.3415 187.884 70.1324 193.073 64.1368 201.162C57.2621 210.437 57.2621 226.574 57.2621 258.849V413.909C57.2621 446.184 57.2621 462.321 64.1368 471.596C70.1324 479.685 79.3415 484.874 89.4578 485.864C101.058 487 115.176 478.818 143.411 462.454Z" fill="#7000F2"/>
<path d="M223.438 409.959C235.038 411.112 249.156 402.807 277.392 386.198L411.169 307.506C438.725 291.296 452.503 283.191 457.151 272.659C461.207 263.469 461.207 252.997 457.151 243.807C452.503 233.275 438.725 225.17 411.169 208.961L277.392 130.268C249.156 113.659 235.038 105.354 223.438 106.507C213.322 107.512 204.113 112.779 198.117 120.989C191.243 130.403 191.243 146.782 191.243 179.541V197.964C193.33 199.116 195.608 200.397 198.11 201.804L254.139 233.321C268.623 241.468 275.864 245.541 278.276 250.894C280.379 255.561 280.379 260.905 278.276 265.572C275.864 270.924 268.623 274.998 254.139 283.145L198.11 314.661C195.608 316.068 193.33 317.35 191.243 318.502V336.926C191.243 369.684 191.243 386.063 198.117 395.477C204.113 403.687 213.322 408.954 223.438 409.959Z" fill="#00C9DB"/>
<path d="M260.516 236.924C258.568 235.812 256.445 234.618 254.139 233.321L198.11 201.805C184.108 193.928 177.107 189.99 171.372 190.638C166.369 191.204 161.837 193.855 158.891 197.938C156.208 201.657 155.657 207.493 155.544 217.794L143.411 210.657C115.175 194.048 101.058 185.743 89.4578 186.895C79.3415 187.901 70.1324 193.168 64.1368 201.378C57.3818 210.628 57.2642 226.603 57.2621 258.233L57.2621 99.1525C57.2621 66.3941 57.2621 50.0149 64.1368 40.601C70.1324 32.391 79.3415 27.1239 89.4578 26.1188C101.058 24.9663 115.175 33.2708 143.411 49.88L277.188 128.572C304.744 144.782 318.522 152.887 323.171 163.419C327.227 172.609 327.227 183.081 323.171 192.271C318.522 202.803 304.744 210.908 277.188 227.117L260.516 236.924Z" fill="#3740FF"/>
</svg>
