<svg width="64" height="64" viewBox="0 0 64 64" xmlns="http://www.w3.org/2000/svg" xml:space="preserve" fill-rule="evenodd" clip-rule="evenodd" stroke-linejoin="round" stroke-miterlimit="2">
  <path d="M64 32C64 14.339 49.661 0 32 0S0 14.339 0 32s14.339 32 32 32 32-14.339 32-32Z" fill="#fff"/>
  <path d="M40 32.01c0 .505-.159 1.013-.477 1.419a7.73 7.73 0 0 1-.557.622l-.119.117c-1.671 1.771-5.827 4.434-7.935 5.288 0 .019-1.253.527-1.849.544h-.08c-.915 0-1.77-.503-2.207-1.32-.239-.449-.458-1.752-.478-1.769-.179-1.169-.298-2.957-.298-4.921 0-2.058.119-3.927.338-5.074 0-.019.219-1.069.358-1.419a2.55 2.55 0 0 1 1.114-1.205A2.834 2.834 0 0 1 29.063 24c.457.021 1.312.311 1.65.447 2.227.856 6.483 3.655 8.114 5.366.278.272.576.604.656.68.338.428.517.953.517 1.517Z" fill="#141216" fill-rule="nonzero"/>
</svg>
