<svg viewBox="0 0 316 264" xmlns="http://www.w3.org/2000/svg" fill-rule="evenodd" clip-rule="evenodd" stroke-linejoin="round" stroke-miterlimit="2">
  <path d="M40.072 64.973H18.104C8.112 64.973 0 73.086 0 83.077v96.945c0 9.991 8.112 18.103 18.104 18.103h22.03c2.118 1.223 4.4 2.315 6.529 3.465l118.345 61.509c8.164 0 14.793-6.629 14.793-14.793V14.793C179.801 6.629 173.172 0 165.008 0L46.663 61.509c-2.116 1.114-4.432 2.209-6.591 3.464zM260.404 116.114L222.19 77.899a5.462 5.462 0 00-7.718 0l-7.718 7.718a5.46 5.46 0 000 7.718l38.215 38.214-38.215 38.215a5.46 5.46 0 000 7.718l7.718 7.718a5.462 5.462 0 007.718 0l38.214-38.215 38.215 38.215a5.462 5.462 0 007.718 0l7.718-7.718a5.462 5.462 0 000-7.718l-38.215-38.215 38.215-38.214a5.462 5.462 0 000-7.718l-7.718-7.718a5.462 5.462 0 00-7.718 0l-38.215 38.215z" fill="#141216"/>
</svg>
